:SAMPLES-PER-SECOND 30
:FULLY-SPECIFIED
:DEGREES
752
root  -2.47893 34.3968 -2.83689 3.89172 77.7154 9.69049
RightUpLeg  -35.6965 -9.57268 -5.18635
RightLeg  75.7315 1.97229 7.9177
RightFoot  -9.66019 -0.187143 8.25263
RightToes  -4.65663e-010 0 -3.6325e-017
Spine  37.6037 1.08121 -0.355457
Spine1  13.3231 1.70069 -1.79981
HEad  -33.5482 1.52197 -3.45589
LeftShoulder1  0.201721 2.82993 -23.7901
LeftArm  -10.6728 1.73168 -47.0684
LeftForeArm  36.8603 -62.8008 -18.5143
LeftHand  -0.0389601 4.84105 3.27836
RightShoulder  -0.0778856 -3.74693 22.8106
RightArm  -6.10899 14.5278 46.6841
RightForeArm  17.8385 55.1106 14.7586
RightHand  -0.488977 6.2554 -5.1945
LeftUpLeg  -37.5854 7.73044 -1.87143
LeftLeg  41.1824 -2.40685 -1.8878
LeftFoot  4.82306 -0.872274 5.93949
LeftToes  8.74931e-010 -1.05764e-010 1.2659e-011
753
root  -2.27573 33.629 -2.90832 9.4014 78.426 11.8115
RightUpLeg  -45.4903 -10.9455 -4.9887
RightLeg  70.7834 2.13426 5.97366
RightFoot  -11.1002 -0.0918888 8.17253
RightToes  -4.65663e-010 0 -3.6325e-017
Spine  39.6214 0.423008 0.326587
Spine1  17.6495 1.85616 -2.84576
HEad  -35.8367 -1.10352 -3.67815
LeftShoulder1  0.322034 2.27538 -19.8373
LeftArm  -16.7275 -6.2778 -48.6019
LeftForeArm  47.498 -71.972 -30.2255
LeftHand  -0.0593627 4.33514 4.31869
RightShoulder  0.0330056 -3.35453 21.7551
RightArm  -13.809 15.0595 45.0758
RightForeArm  24.028 64.0323 21.3348
RightHand  -0.479272 5.43488 -5.45527
LeftUpLeg  -44.2403 9.35217 -3.87427
LeftLeg  46.1529 -3.65072 -3.63397
LeftFoot  3.51168 -1.06044 7.94623
LeftToes  8.74931e-010 -1.05764e-010 1.2659e-011
754
root  -2.09954 32.9095 -2.89305 12.8491 79.4928 11.8818
RightUpLeg  -52.1824 -10.8981 -4.68775
RightLeg  62.5857 3.32146 6.32823
RightFoot  -11.7248 -0.064188 8.8723
RightToes  -4.65663e-010 0 -3.6325e-017
Spine  42.7714 -0.366028 1.55021
Spine1  20.0831 1.75659 -2.98683
HEad  -35.8688 -3.39321 -4.80792
LeftShoulder1  0.397501 1.74724 -15.6426
LeftArm  -24.0356 -14.2882 -49.0629
LeftForeArm  68.5116 -78.1631 -51.4279
LeftHand  -0.0883171 3.77827 5.26847
RightShoulder  0.206566 -2.67586 19.0739
RightArm  -20.8473 15.0244 44.7621
RightForeArm  33.3089 71.2077 31.3228
RightHand  -0.536235 4.45323 -6.59892
LeftUpLeg  -50.503 10.5485 -5.28875
LeftLeg  50.5011 -4.70947 -5.64559
LeftFoot  1.87896 -1.00378 8.54756
LeftToes  8.74931e-010 -1.05764e-010 1.2659e-011
755
root  -1.86701 32.3092 -2.73628 17.6668 81.7624 13.7701
RightUpLeg  -55.8934 -11.2519 -4.72572
RightLeg  56.3422 4.59627 7.01863
RightFoot  -9.02032 -0.139185 7.64547
RightToes  -4.65663e-010 0 -3.6325e-017
Spine  46.4853 -1.25927 2.59118
Spine1  21.731 0.799296 -1.81659
HEad  -35.2465 -5.02744 -5.39646
LeftShoulder1  0.314027 1.78024 -11.064
LeftArm  -32.3224 -21.5839 -47.9285
LeftForeArm  99.3126 -80.6133 -83.4079
LeftHand  -0.0821571 4.2061 6.34409
RightShoulder  0.293929 -2.23903 16.9645
RightArm  -26.4756 16.2424 43.4066
RightForeArm  45.8375 76.0485 45.8214
RightHand  -0.559841 3.87806 -7.24491
LeftUpLeg  -55.7375 10.8234 -6.76447
LeftLeg  54.0233 -5.71806 -7.90822
LeftFoot  0.766342 -1.00306 9.3887
LeftToes  8.74931e-010 -1.05764e-010 1.2659e-011
756
root  -1.5746 31.7628 -2.41368 21.6208 83.1107 14.3577
RightUpLeg  -60.809 -10.7104 -3.56518
RightLeg  57.3565 3.64198 5.63808
RightFoot  -3.79918 -0.0728245 0.166353
RightToes  -4.65663e-010 0 -3.6325e-017
Spine  49.3167 -1.04222 3.2821
Spine1  22.8002 0.489936 -0.235216
HEad  -33.2643 -6.53424 -4.65534
LeftShoulder1  0.281821 1.65508 -7.58721
LeftArm  -40.557 -28.4703 -43.8156
LeftForeArm  122.157 -80.1503 -107.605
LeftHand  -0.111558 3.86697 7.3665
RightShoulder  0.344877 -1.95019 15.6665
RightArm  -30.7528 17.7601 41.1472
RightForeArm  61.7952 78.716 64.7552
RightHand  -0.727298 4.3875 -8.9055
LeftUpLeg  -61.0928 11.5852 -7.84038
LeftLeg  57.2147 -6.28829 -9.90085
LeftFoot  -0.347989 -0.943206 9.79238
LeftToes  8.74931e-010 -1.05764e-010 1.2659e-011
757
root  -1.3154 31.1974 -2.0249 9.54694 83.7953 0.801666
RightUpLeg  -63.7412 -9.0837 -1.82315
RightLeg  60.9094 2.32729 4.03405
RightFoot  -5.47818 -0.0316125 -0.0910868
RightToes  -4.65663e-010 0 -3.6325e-017
Spine  55.3346 -1.21631 4.36659
Spine1  20.6476 1.42312 -0.668363
HEad  -32.1781 -7.47711 -4.26705
LeftShoulder1  0.209447 1.92805 -5.45902
LeftArm  -47.7605 -33.0453 -37.4259
LeftForeArm  134.343 -78.927 -121.442
LeftHand  -0.176925 2.95501 7.97425
RightShoulder  0.315438 -2.03869 15.0218
RightArm  -33.0758 18.5958 39.8463
RightForeArm  82.263 79.6735 86.5096
RightHand  -0.825192 4.40153 -10.0387
LeftUpLeg  -64.7901 12.7967 -6.48674
LeftLeg  61.223 -6.26083 -11.5986
LeftFoot  -2.1203 -0.774257 9.7392
LeftToes  8.74931e-010 -1.05764e-010 1.2659e-011
758
root  -0.990726 30.7738 -1.69676 -9.70801 83.7083 -20.1236
RightUpLeg  -66.0514 -7.79298 0.809418
RightLeg  63.0534 1.62653 2.91838
RightFoot  -6.12785 -0.00352535 -0.859468
RightToes  -4.65663e-010 0 -3.6325e-017
Spine  60.5459 -1.18623 5.40488
Spine1  18.9656 2.40244 -0.590387
HEad  -32.7661 -8.33762 -4.62002
LeftShoulder1  0.196414 1.79774 -3.60656
LeftArm  -54.2082 -34.138 -31.4563
LeftForeArm  141.52 -77.6166 -130.055
LeftHand  -0.172848 3.20061 8.60213
RightShoulder  0.393375 -1.58512 13.7405
RightArm  -34.8706 18.8863 38.7488
RightForeArm  103.032 79.2223 107.549
RightHand  -0.872103 4.5537 -10.4664
LeftUpLeg  -68.1139 13.6494 -4.13871
LeftLeg  64.5959 -5.85937 -12.6178
LeftFoot  -3.89002 -0.601478 9.56047
LeftToes  8.74931e-010 -1.05764e-010 1.2659e-011
